<svg xmlns="http://www.w3.org/2000/svg" x="0" y="0" viewBox="0 0 48 48"><title>social color 1_logo instagram</title><g class="nc-icon-wrapper"><path fill="#8E6151" d="M0 5.693V15h3V.68a5.69 5.69 0 0 0-3 5.013z"/><path fill="#8E6151" d="M42.294 0H15v15h33V5.693C48 2.549 45.446 0 42.294 0z"/><path fill="#FA3756" d="M5.707 0C4.727 0 3.805.247 3 .68V15h3V0h-.293z"/><path fill="#FEC849" d="M6 0h3v15H6z"/><path fill="#71C997" d="M9 0h3v15H9z"/><path fill="#4892FC" d="M12 0h3v15h-3z"/><path fill="#E9E2D6" d="M0 42.307C0 45.451 2.555 48 5.707 48h36.587C45.446 48 48 45.45 48 42.307V15H0v27.307z"/><path fill="#1A1A1A" d="M42 12h-4a2 2 0 0 1-2-2V6a2 2 0 0 1 2-2h4a2 2 0 0 1 2 2v4a2 2 0 0 1-2 2z"/><circle fill="#37373A" cx="40" cy="8" r="2"/><circle fill="#E9E2D6" cx="24" cy="24" r="13"/><circle fill="#1A1A1A" cx="24" cy="24" r="11"/><circle fill="#37373A" cx="24" cy="24" r="8"/><circle fill="#1A1A1A" cx="24" cy="24" r="5"/></g></svg>